<svg width="1318" height="426" viewBox="0 0 1318 426" fill="none" xmlns="http://www.w3.org/2000/svg">
<path d="M1289.86 360.366C1281.5 360.366 1274.6 357.767 1269.18 352.568C1263.98 347.143 1261.38 340.702 1261.38 333.243C1261.38 325.558 1263.98 319.116 1269.18 313.918C1274.6 308.493 1281.5 305.781 1289.86 305.781C1298 305.781 1304.66 308.493 1309.86 313.918C1315.29 319.116 1318 325.558 1318 333.243C1318 340.702 1315.29 347.143 1309.86 352.568C1304.66 357.767 1298 360.366 1289.86 360.366Z" fill="white"/>
<path d="M1232.63 188.474H1279.08L1179.07 425.8H1135.33L1167.2 351.89L1100.41 188.474H1148.89L1190.25 300.017L1232.63 188.474Z" fill="white"/>
<path d="M979.725 332.564L985.15 331.886V425.8H941.753V188.474H981.082L983.794 209.494C988.766 202.939 995.773 197.402 1004.81 192.881C1013.86 188.361 1024.25 186.1 1036.01 186.1C1050.7 186.1 1063.69 189.717 1074.99 196.949C1086.3 204.182 1095.11 214.353 1101.44 227.463C1107.99 240.346 1111.27 255.603 1111.27 273.233C1111.27 290.863 1107.99 306.233 1101.44 319.342C1095.11 332.451 1086.3 342.623 1074.99 349.855C1063.92 356.862 1050.92 360.366 1036.01 360.366C1022.9 360.366 1011.48 357.653 1001.76 352.229C992.27 346.804 984.924 340.249 979.725 332.564ZM1064.48 273.233C1064.48 258.993 1060.76 247.579 1053.3 238.99C1046.06 230.175 1036.57 225.768 1024.82 225.768C1017.58 225.768 1010.92 227.689 1004.81 231.531C998.938 235.148 994.191 240.459 990.575 247.466C986.958 254.247 985.15 262.836 985.15 273.233C985.15 283.404 986.958 291.993 990.575 299C994.191 306.007 998.938 311.431 1004.81 315.274C1010.92 318.89 1017.58 320.698 1024.82 320.698C1036.57 320.698 1046.06 316.404 1053.3 307.815C1060.76 299 1064.48 287.472 1064.48 273.233Z" fill="white"/>
<path d="M844.124 360.366C827.624 360.366 812.933 356.862 800.049 349.855C787.166 342.623 776.995 332.564 769.536 319.681C762.303 306.572 758.687 291.202 758.687 273.572C758.687 255.716 762.416 240.233 769.875 227.124C777.56 214.014 787.957 203.956 801.066 196.949C814.176 189.717 828.867 186.1 845.141 186.1C861.415 186.1 876.107 189.717 889.216 196.949C902.326 203.956 912.723 214.014 920.408 227.124C928.092 240.007 931.935 255.264 931.935 272.894C931.935 290.75 927.979 306.233 920.069 319.342C912.384 332.451 901.873 342.623 888.538 349.855C875.429 356.862 860.624 360.366 844.124 360.366ZM843.785 321.376C850.792 321.376 857.46 319.681 863.788 316.291C870.117 312.674 875.316 307.363 879.384 300.356C883.452 293.123 885.487 283.969 885.487 272.894C885.487 262.271 883.565 253.456 879.723 246.449C875.881 239.216 870.795 233.905 864.466 230.514C858.364 226.898 851.696 225.09 844.463 225.09C837.456 225.09 830.902 226.898 824.799 230.514C818.922 233.905 814.176 239.216 810.559 246.449C806.943 253.456 805.135 262.497 805.135 273.572C805.135 284.195 806.83 293.123 810.22 300.356C813.837 307.363 818.583 312.674 824.46 316.291C830.337 319.681 836.778 321.376 843.785 321.376Z" fill="white"/>
<path d="M665.411 188.474H704.74L707.791 210.172C712.538 204.295 717.849 199.549 723.726 195.933C729.829 192.09 736.496 189.491 743.729 188.135C750.962 186.552 758.534 186.666 766.445 188.474V229.158C760.342 227.124 753.9 226.559 747.12 227.463C740.565 228.367 734.349 230.74 728.473 234.583C722.822 238.425 718.075 243.963 714.233 251.196C710.617 258.202 708.808 267.13 708.808 277.98V357.992H665.411V188.474Z" fill="white"/>
<path d="M576.859 188.474V141.009H620.595V188.474H658.228V226.785H620.595V295.61C620.595 304.425 622.516 310.64 626.359 314.257C630.201 317.873 634.948 319.794 640.598 320.02C646.475 320.246 652.352 319.907 658.228 319.003V356.297C647.831 358.558 637.66 359.236 627.715 358.332C617.996 357.428 609.294 354.828 601.609 350.534C593.924 346.013 587.821 339.233 583.301 330.192C579.006 321.151 576.859 309.623 576.859 295.61V226.785H552.788V188.474H576.859Z" fill="white"/>
<path d="M497.471 188.474H540.868V357.992H497.471V188.474ZM519.509 166.775C511.372 166.775 504.704 164.176 499.506 158.977C494.307 153.779 491.708 147.563 491.708 140.33C491.708 132.872 494.307 126.656 499.506 121.683C504.704 116.485 511.372 113.886 519.509 113.886C527.194 113.886 533.635 116.485 538.834 121.683C544.259 126.656 546.971 132.872 546.971 140.33C546.971 147.563 544.259 153.779 538.834 158.977C533.635 164.176 527.194 166.775 519.509 166.775Z" fill="white"/>
<path d="M352.44 213.902C357.639 206.217 364.985 199.662 374.478 194.237C384.197 188.813 395.611 186.1 408.72 186.1C423.638 186.1 436.634 189.717 447.71 196.95C459.011 203.956 467.826 214.015 474.155 227.124C480.709 240.233 483.987 255.603 483.987 273.233C483.987 290.863 480.709 306.233 474.155 319.342C467.826 332.226 459.011 342.284 447.71 349.517C436.408 356.749 423.412 360.366 408.72 360.366C396.967 360.366 386.57 358.105 377.529 353.585C368.488 348.838 361.481 343.301 356.509 336.972L353.796 357.992H314.468V113.886H357.865V214.58L352.44 213.902ZM437.2 273.233C437.2 258.994 433.47 247.579 426.011 238.99C418.779 230.175 409.285 225.768 397.532 225.768C390.299 225.768 383.632 227.689 377.529 231.531C371.652 235.148 366.906 240.459 363.289 247.466C359.673 254.473 357.865 263.062 357.865 273.233C357.865 283.404 359.673 291.993 363.289 299C366.906 306.007 371.652 311.431 377.529 315.274C383.632 318.89 390.299 320.698 397.532 320.698C409.285 320.698 418.779 316.404 426.011 307.815C433.47 299 437.2 287.473 437.2 273.233Z" fill="white"/>
<path d="M70 266C70 283.673 55.6731 298 38 298C20.3269 298 6 283.673 6 266C6 248.327 20.3269 234 38 234C55.6731 234 70 248.327 70 266Z" fill="#7700FF"/>
<path d="M187 325C187 342.673 172.673 357 155 357C137.327 357 123 342.673 123 325C123 307.327 137.327 293 155 293C172.673 293 187 307.327 187 325Z" fill="#7700FF"/>
<path d="M229 259C229 276.673 214.673 291 197 291C179.327 291 165 276.673 165 259C165 241.327 179.327 227 197 227C214.673 227 229 241.327 229 259Z" fill="#7700FF"/>
<path d="M212 186C212 203.673 197.673 218 180 218C162.327 218 148 203.673 148 186C148 168.327 162.327 154 180 154C197.673 154 212 168.327 212 186Z" fill="#7700FF"/>
<path d="M116 324C116 341.673 101.673 356 84 356C66.3269 356 52 341.673 52 324C52 306.327 66.3269 292 84 292C101.673 292 116 306.327 116 324Z" fill="#7700FF"/>
<path d="M69 193C69 210.673 54.6731 225 37 225C19.3269 225 5 210.673 5 193C5 175.327 19.3269 161 37 161C54.6731 161 69 175.327 69 193Z" fill="#7700FF"/>
<path d="M69 116C69 133.673 54.6731 148 37 148C19.3269 148 5 133.673 5 116C5 98.3269 19.3269 84 37 84C54.6731 84 69 98.3269 69 116Z" fill="#7700FF"/>
<path d="M69 38C69 55.6731 54.6731 70 37 70C19.3269 70 5 55.6731 5 38C5 20.3269 19.3269 6 37 6C54.6731 6 69 20.3269 69 38Z" fill="#7700FF"/>
<path d="M139 164C139 181.673 124.673 196 107 196C89.3269 196 75 181.673 75 164C75 146.327 89.3269 132 107 132C124.673 132 139 146.327 139 164Z" fill="#7700FF"/>
<path d="M67 267C67 284.673 52.6731 299 35 299C17.3269 299 3 284.673 3 267C3 249.327 17.3269 235 35 235C52.6731 235 67 249.327 67 267Z" fill="#FF009D"/>
<path d="M189 327C189 344.673 174.673 359 157 359C139.327 359 125 344.673 125 327C125 309.327 139.327 295 157 295C174.673 295 189 309.327 189 327Z" fill="#FF009D"/>
<path d="M232 260C232 277.673 217.673 292 200 292C182.327 292 168 277.673 168 260C168 242.327 182.327 228 200 228C217.673 228 232 242.327 232 260Z" fill="#FF009D"/>
<path d="M214 184C214 201.673 199.673 216 182 216C164.327 216 150 201.673 150 184C150 166.327 164.327 152 182 152C199.673 152 214 166.327 214 184Z" fill="#FF009D"/>
<path d="M115 327C115 344.673 100.673 359 83 359C65.3269 359 51 344.673 51 327C51 309.327 65.3269 295 83 295C100.673 295 115 309.327 115 327Z" fill="#FF009D"/>
<path d="M67 191C67 208.673 52.6731 223 35 223C17.3269 223 3 208.673 3 191C3 173.327 17.3269 159 35 159C52.6731 159 67 173.327 67 191Z" fill="#FF009D"/>
<path d="M67 113C67 130.673 52.6731 145 35 145C17.3269 145 3 130.673 3 113C3 95.3269 17.3269 81 35 81C52.6731 81 67 95.3269 67 113Z" fill="#FF009D"/>
<path d="M67 35C67 52.6731 52.6731 67 35 67C17.3269 67 3 52.6731 3 35C3 17.3269 17.3269 3 35 3C52.6731 3 67 17.3269 67 35Z" fill="#FF009D"/>
<path d="M139 161C139 178.673 124.673 193 107 193C89.3269 193 75 178.673 75 161C75 143.327 89.3269 129 107 129C124.673 129 139 143.327 139 161Z" fill="#FF009D"/>
<path d="M64 269C64 286.673 49.6731 301 32 301C14.3269 301 0 286.673 0 269C0 251.327 14.3269 237 32 237C49.6731 237 64 251.327 64 269Z" fill="white"/>
<path d="M191 330C191 347.673 176.673 362 159 362C141.327 362 127 347.673 127 330C127 312.327 141.327 298 159 298C176.673 298 191 312.327 191 330Z" fill="white"/>
<path d="M235 262C235 279.673 220.673 294 203 294C185.327 294 171 279.673 171 262C171 244.327 185.327 230 203 230C220.673 230 235 244.327 235 262Z" fill="white"/>
<path d="M217 182C217 199.673 202.673 214 185 214C167.327 214 153 199.673 153 182C153 164.327 167.327 150 185 150C202.673 150 217 164.327 217 182Z" fill="white"/>
<path d="M113 330C113 347.673 98.6731 362 81 362C63.3269 362 49 347.673 49 330C49 312.327 63.3269 298 81 298C98.6731 298 113 312.327 113 330Z" fill="white"/>
<path d="M64 189C64 206.673 49.6731 221 32 221C14.3269 221 0 206.673 0 189C0 171.327 14.3269 157 32 157C49.6731 157 64 171.327 64 189Z" fill="white"/>
<path d="M64 110C64 127.673 49.6731 142 32 142C14.3269 142 0 127.673 0 110C0 92.3269 14.3269 78 32 78C49.6731 78 64 92.3269 64 110Z" fill="white"/>
<path d="M64 32C64 49.6731 49.6731 64 32 64C14.3269 64 0 49.6731 0 32C0 14.3269 14.3269 0 32 0C49.6731 0 64 14.3269 64 32Z" fill="white"/>
<path d="M139 157C139 174.673 124.673 189 107 189C89.3269 189 75 174.673 75 157C75 139.327 89.3269 125 107 125C124.673 125 139 139.327 139 157Z" fill="white"/>
</svg>
