<?xml version="1.0" encoding="UTF-8"?>
<svg id="Layer_1" xmlns="http://www.w3.org/2000/svg" version="1.1" viewBox="0 0 1152.66 389.28">
  <!-- Generator: Adobe Illustrator 29.8.2, SVG Export Plug-In . SVG Version: 2.1.1 Build 3)  -->
  <defs>
    <style>
      .st0 {
        fill: #010101;
      }

      .st1 {
        fill: #fff;
      }

      .st2 {
        fill: #fff;
      }
    </style>
  </defs>
  <rect class="st0" x=".14" y=".12" width="391.18" height="391.18"/>
  <g>
    <path class="st2" d="M163.36,248.95c0,10.69-8.67,19.36-19.36,19.36s-19.36-8.67-19.36-19.36,8.67-19.36,19.36-19.36,19.36,8.67,19.36,19.36Z"/>
    <path class="st2" d="M240.2,285.86c0,10.69-8.67,19.36-19.36,19.36s-19.36-8.67-19.36-19.36,8.67-19.36,19.36-19.36,19.36,8.67,19.36,19.36Z"/>
    <path class="st2" d="M266.82,244.72c0,10.69-8.67,19.36-19.36,19.36s-19.36-8.67-19.36-19.36,8.67-19.36,19.36-19.36,19.36,8.67,19.36,19.36Z"/>
    <path class="st2" d="M255.93,196.32c0,10.69-8.67,19.36-19.36,19.36s-19.36-8.67-19.36-19.36,8.67-19.36,19.36-19.36,19.36,8.67,19.36,19.36Z"/>
    <path class="st2" d="M193,285.86c0,10.69-8.67,19.36-19.36,19.36s-19.36-8.67-19.36-19.36,8.67-19.36,19.36-19.36,19.36,8.67,19.36,19.36Z"/>
    <path class="st2" d="M163.36,200.55c0,10.69-8.67,19.36-19.36,19.36s-19.36-8.67-19.36-19.36,8.67-19.36,19.36-19.36,19.36,8.67,19.36,19.36Z"/>
    <path class="st2" d="M163.36,152.75c0,10.69-8.67,19.36-19.36,19.36s-19.36-8.67-19.36-19.36,8.67-19.36,19.36-19.36,19.36,8.67,19.36,19.36Z"/>
    <path class="st2" d="M163.36,105.56c0,10.69-8.67,19.36-19.36,19.36s-19.36-8.67-19.36-19.36,8.67-19.36,19.36-19.36,19.36,8.67,19.36,19.36Z"/>
    <path class="st2" d="M208.74,181.19c0,10.69-8.67,19.36-19.36,19.36s-19.36-8.67-19.36-19.36,8.67-19.36,19.36-19.36,19.36,8.67,19.36,19.36Z"/>
  </g>
  <g>
    <path class="st1" d="M564.34,194.05c2.84-4.19,6.88-7.78,12.13-10.74,5.24-2.96,11.44-4.44,18.61-4.44,8.14,0,15.27,1.94,21.38,5.83,6.11,3.89,10.93,9.42,14.44,16.58,3.52,7.16,5.28,15.55,5.28,25.18s-1.76,17.99-5.28,25.09c-3.52,7.1-8.36,12.62-14.53,16.58-6.18,3.95-13.27,5.92-21.29,5.92-6.42,0-12.1-1.27-17.04-3.8-4.94-2.53-8.77-5.53-11.48-8.98l-1.48,11.48h-21.48v-133.32h23.7v55l-2.96-.37ZM610.63,226.45c0-7.78-2-14.04-6.01-18.79-4.01-4.75-9.23-7.13-15.65-7.13-3.95,0-7.56,1.02-10.83,3.05-3.27,2.04-5.9,4.97-7.87,8.79-1.98,3.83-2.96,8.52-2.96,14.07s.99,10.25,2.96,14.07c1.97,3.83,4.6,6.76,7.87,8.8,3.27,2.03,6.88,3.05,10.83,3.05,6.42,0,11.63-2.38,15.65-7.13,4.01-4.75,6.01-11.02,6.01-18.79Z"/>
    <path class="st1" d="M658.47,168.3c-4.44,0-8.09-1.39-10.92-4.17-2.84-2.77-4.26-6.2-4.26-10.28s1.42-7.5,4.26-10.28c2.84-2.78,6.48-4.17,10.92-4.17,4.19,0,7.75,1.39,10.65,4.17,2.9,2.78,4.35,6.2,4.35,10.28s-1.45,7.5-4.35,10.28c-2.9,2.78-6.45,4.17-10.65,4.17ZM646.44,180.15h23.7v92.58h-23.7v-92.58Z"/>
    <path class="st1" d="M690.49,180.15v-25.92h24.07v25.92h20.37v20.93h-20.37v37.59c0,4.81,1.02,8.21,3.05,10.18,2.04,1.98,4.63,3.03,7.78,3.15,3.15.12,6.33-.06,9.54-.56v20.37c-5.68,1.24-11.2,1.61-16.58,1.11-5.37-.49-10.15-1.94-14.35-4.35-4.2-2.41-7.5-6.08-9.91-11.02-2.41-4.94-3.61-11.23-3.61-18.88v-37.59h-13.15v-20.93h13.15Z"/>
    <path class="st1" d="M744.39,180.15h21.48l1.66,11.85c2.59-3.21,5.53-5.83,8.8-7.87,3.27-2.03,6.88-3.45,10.83-4.26,3.95-.8,8.08-.71,12.4.28v22.22c-3.34-1.11-6.82-1.42-10.46-.92-3.64.49-7.04,1.79-10.19,3.89-3.14,2.1-5.74,5.09-7.78,8.98-2.03,3.89-3.05,8.8-3.05,14.72v43.7h-23.7v-92.58Z"/>
    <path class="st1" d="M846.82,274.03c-9.01,0-17.04-1.94-24.07-5.83-7.04-3.89-12.56-9.38-16.57-16.48-4.01-7.1-6.02-15.46-6.02-25.09s2.07-18.2,6.2-25.36c4.13-7.16,9.78-12.68,16.94-16.58,7.16-3.89,15.18-5.83,24.07-5.83s16.91,1.94,24.07,5.83c7.16,3.89,12.84,9.38,17.04,16.48,4.19,7.1,6.29,15.46,6.29,25.09s-2.13,18.21-6.38,25.37c-4.26,7.16-10,12.68-17.22,16.57-7.22,3.89-15.34,5.83-24.35,5.83ZM846.63,252.74c3.82,0,7.47-.95,10.92-2.87,3.46-1.91,6.29-4.82,8.52-8.7,2.22-3.89,3.34-8.86,3.34-14.91s-1.05-10.65-3.15-14.53c-2.1-3.89-4.85-6.79-8.24-8.7-3.4-1.91-7.07-2.87-11.02-2.87s-7.38.95-10.65,2.87c-3.27,1.91-5.87,4.81-7.78,8.7-1.91,3.89-2.87,8.86-2.87,14.9s.93,10.65,2.77,14.54c1.85,3.89,4.38,6.79,7.59,8.7s6.73,2.87,10.56,2.87Z"/>
    <path class="st1" d="M924.49,258.85l2.96-.37v51.29h-23.7v-129.62h21.48l1.48,11.48c2.72-3.58,6.54-6.6,11.48-9.07,4.94-2.47,10.61-3.7,17.04-3.7,8.02,0,15.12,1.98,21.29,5.92,6.17,3.95,11.02,9.47,14.53,16.57,3.52,7.1,5.28,15.46,5.28,25.09s-1.76,18.02-5.28,25.18c-3.52,7.16-8.33,12.68-14.44,16.57-6.11,3.89-13.24,5.83-21.38,5.83-7.17,0-13.36-1.48-18.61-4.45-5.25-2.96-9.29-6.54-12.13-10.74ZM970.78,226.45c0-7.78-2-14.04-6.01-18.79-4.01-4.75-9.23-7.13-15.65-7.13-3.95,0-7.56,1.02-10.83,3.05-3.27,2.04-5.9,4.94-7.87,8.7-1.98,3.76-2.96,8.48-2.96,14.16s.99,10.25,2.96,14.07c1.97,3.83,4.6,6.76,7.87,8.8,3.27,2.03,6.88,3.05,10.83,3.05,6.42,0,11.63-2.38,15.65-7.13,4.01-4.75,6.01-11.02,6.01-18.79Z"/>
    <path class="st1" d="M1064.49,180.15h25.36l-54.62,129.62h-23.89l17.41-40.37-36.48-89.25h26.48l22.59,60.92,23.15-60.92Z"/>
    <path class="st1" d="M1096.67,274.03c-4.57,0-8.3-1.45-11.2-4.35-2.9-2.9-4.35-6.39-4.35-10.46s1.45-7.74,4.35-10.65c2.9-2.9,6.63-4.35,11.2-4.35s8.11,1.45,11.02,4.35c2.9,2.9,4.35,6.45,4.35,10.65s-1.45,7.56-4.35,10.46-6.58,4.35-11.02,4.35Z"/>
  </g>
</svg>