<svg width="720" height="717" viewBox="0 0 720 717" fill="none" xmlns="http://www.w3.org/2000/svg">
<rect width="720" height="717" fill="black"/>
<path d="M297.455 470.679C297.455 493.934 278.603 512.786 255.348 512.786C232.093 512.786 213.241 493.934 213.241 470.679C213.241 447.424 232.093 428.572 255.348 428.572C278.603 428.572 297.455 447.424 297.455 470.679Z" fill="#7700FF"/>
<path d="M451.409 548.314C451.409 571.569 432.557 590.421 409.302 590.421C386.046 590.421 367.195 571.569 367.195 548.314C367.195 525.059 386.046 506.207 409.302 506.207C432.557 506.207 451.409 525.059 451.409 548.314Z" fill="#7700FF"/>
<path d="M506.674 461.468C506.674 484.723 487.822 503.575 464.567 503.575C441.312 503.575 422.46 484.723 422.46 461.468C422.46 438.213 441.312 419.361 464.567 419.361C487.822 419.361 506.674 438.213 506.674 461.468Z" fill="#7700FF"/>
<path d="M484.305 365.411C484.305 388.666 465.453 407.518 442.198 407.518C418.943 407.518 400.091 388.666 400.091 365.411C400.091 342.156 418.943 323.304 442.198 323.304C465.453 323.304 484.305 342.156 484.305 365.411Z" fill="#7700FF"/>
<path d="M357.984 546.998C357.984 570.253 339.132 589.105 315.877 589.105C292.621 589.105 273.769 570.253 273.769 546.998C273.769 523.743 292.621 504.891 315.877 504.891C339.132 504.891 357.984 523.743 357.984 546.998Z" fill="#7700FF"/>
<path d="M296.139 374.622C296.139 397.877 277.287 416.729 254.032 416.729C230.777 416.729 211.925 397.877 211.925 374.622C211.925 351.367 230.777 332.515 254.032 332.515C277.287 332.515 296.139 351.367 296.139 374.622Z" fill="#7700FF"/>
<path d="M296.139 273.302C296.139 296.557 277.287 315.409 254.032 315.409C230.777 315.409 211.925 296.557 211.925 273.302C211.925 250.047 230.777 231.195 254.032 231.195C277.287 231.195 296.139 250.047 296.139 273.302Z" fill="#7700FF"/>
<path d="M296.139 170.666C296.139 193.921 277.287 212.773 254.032 212.773C230.777 212.773 211.925 193.921 211.925 170.666C211.925 147.411 230.777 128.559 254.032 128.559C277.287 128.559 296.139 147.411 296.139 170.666Z" fill="#7700FF"/>
<path d="M388.248 336.463C388.248 359.718 369.396 378.57 346.141 378.57C322.886 378.57 304.034 359.718 304.034 336.463C304.034 313.208 322.886 294.356 346.141 294.356C369.396 294.356 388.248 313.208 388.248 336.463Z" fill="#7700FF"/>
<path d="M293.507 471.995C293.507 495.25 274.655 514.102 251.4 514.102C228.145 514.102 209.293 495.25 209.293 471.995C209.293 448.74 228.145 429.888 251.4 429.888C274.655 429.888 293.507 448.74 293.507 471.995Z" fill="#FF009D"/>
<path d="M454.04 550.946C454.04 574.201 435.188 593.053 411.933 593.053C388.678 593.053 369.826 574.201 369.826 550.946C369.826 527.691 388.678 508.839 411.933 508.839C435.188 508.839 454.04 527.691 454.04 550.946Z" fill="#FF009D"/>
<path d="M510.622 462.784C510.622 486.039 491.77 504.891 468.515 504.891C445.26 504.891 426.408 486.039 426.408 462.784C426.408 439.529 445.26 420.677 468.515 420.677C491.77 420.677 510.622 439.529 510.622 462.784Z" fill="#FF009D"/>
<path d="M486.936 362.78C486.936 386.035 468.085 404.887 444.829 404.887C421.574 404.887 402.722 386.035 402.722 362.78C402.722 339.525 421.574 320.673 444.829 320.673C468.085 320.673 486.936 339.525 486.936 362.78Z" fill="#FF009D"/>
<path d="M356.668 550.946C356.668 574.201 337.816 593.053 314.561 593.053C291.306 593.053 272.454 574.201 272.454 550.946C272.454 527.691 291.306 508.839 314.561 508.839C337.816 508.839 356.668 527.691 356.668 550.946Z" fill="#FF009D"/>
<path d="M293.507 371.991C293.507 395.246 274.655 414.098 251.4 414.098C228.145 414.098 209.293 395.246 209.293 371.991C209.293 348.736 228.145 329.884 251.4 329.884C274.655 329.884 293.507 348.736 293.507 371.991Z" fill="#FF009D"/>
<path d="M293.507 269.355C293.507 292.61 274.655 311.462 251.4 311.462C228.145 311.462 209.293 292.61 209.293 269.355C209.293 246.1 228.145 227.248 251.4 227.248C274.655 227.248 293.507 246.1 293.507 269.355Z" fill="#FF009D"/>
<path d="M293.507 166.719C293.507 189.974 274.655 208.826 251.4 208.826C228.145 208.826 209.293 189.974 209.293 166.719C209.293 143.464 228.145 124.612 251.4 124.612C274.655 124.612 293.507 143.464 293.507 166.719Z" fill="#FF009D"/>
<path d="M388.248 332.515C388.248 355.77 369.396 374.622 346.141 374.622C322.886 374.622 304.034 355.77 304.034 332.515C304.034 309.26 322.886 290.408 346.141 290.408C369.396 290.408 388.248 309.26 388.248 332.515Z" fill="#FF009D"/>
<path d="M289.56 474.627C289.56 497.882 270.708 516.734 247.453 516.734C224.197 516.734 205.345 497.882 205.345 474.627C205.345 451.371 224.197 432.52 247.453 432.52C270.708 432.52 289.56 451.371 289.56 474.627Z" fill="white"/>
<path d="M456.672 554.893C456.672 578.148 437.82 597 414.565 597C391.31 597 372.458 578.148 372.458 554.893C372.458 531.638 391.31 512.786 414.565 512.786C437.82 512.786 456.672 531.638 456.672 554.893Z" fill="white"/>
<path d="M514.569 465.416C514.569 488.671 495.717 507.523 472.462 507.523C449.207 507.523 430.355 488.671 430.355 465.416C430.355 442.161 449.207 423.309 472.462 423.309C495.717 423.309 514.569 442.161 514.569 465.416Z" fill="white"/>
<path d="M490.884 360.148C490.884 383.403 472.032 402.255 448.777 402.255C425.522 402.255 406.67 383.403 406.67 360.148C406.67 336.893 425.522 318.041 448.777 318.041C472.032 318.041 490.884 336.893 490.884 360.148Z" fill="white"/>
<path d="M354.036 554.893C354.036 578.148 335.184 597 311.929 597C288.674 597 269.822 578.148 269.822 554.893C269.822 531.638 288.674 512.786 311.929 512.786C335.184 512.786 354.036 531.638 354.036 554.893Z" fill="white"/>
<path d="M289.56 369.359C289.56 392.614 270.708 411.466 247.453 411.466C224.197 411.466 205.345 392.614 205.345 369.359C205.345 346.104 224.197 327.252 247.453 327.252C270.708 327.252 289.56 346.104 289.56 369.359Z" fill="white"/>
<path d="M289.56 265.407C289.56 288.662 270.708 307.514 247.453 307.514C224.197 307.514 205.345 288.662 205.345 265.407C205.345 242.152 224.197 223.3 247.453 223.3C270.708 223.3 289.56 242.152 289.56 265.407Z" fill="white"/>
<path d="M289.56 162.771C289.56 186.026 270.708 204.878 247.453 204.878C224.197 204.878 205.345 186.026 205.345 162.771C205.345 139.516 224.197 120.664 247.453 120.664C270.708 120.664 289.56 139.516 289.56 162.771Z" fill="white"/>
<path d="M388.248 327.252C388.248 350.507 369.396 369.359 346.141 369.359C322.886 369.359 304.034 350.507 304.034 327.252C304.034 303.997 322.886 285.145 346.141 285.145C369.396 285.145 388.248 303.997 388.248 327.252Z" fill="white"/>
</svg>
