<svg width="600" height="400" viewBox="0 0 600 400" fill="none" xmlns="http://www.w3.org/2000/svg">
  <defs>
    <linearGradient id="bgGradient" x1="0" y1="0" x2="600" y2="400" gradientUnits="userSpaceOnUse">
      <stop stop-color="#a78bfa"/>
      <stop offset="1" stop-color="#7c3aed"/>
    </linearGradient>
    <radialGradient id="circleGradient" cx="0.5" cy="0.5" r="0.5" fx="0.5" fy="0.5">
      <stop offset="0%" stop-color="#fff" stop-opacity="0.8"/>
      <stop offset="100%" stop-color="#a78bfa" stop-opacity="0.2"/>
    </radialGradient>
    <linearGradient id="lineGradient" x1="0" y1="0" x2="1" y2="1">
      <stop offset="0%" stop-color="#fff" stop-opacity="0.5"/>
      <stop offset="100%" stop-color="#a78bfa" stop-opacity="0.3"/>
    </linearGradient>
  </defs>
  <rect width="600" height="400" rx="24" fill="url(#bgGradient)"/>
  <circle cx="180" cy="220" r="80" fill="url(#circleGradient)"/>
  <circle cx="420" cy="180" r="60" fill="url(#circleGradient)"/>
  <rect x="120" y="80" width="120" height="40" rx="20" fill="#fff" fill-opacity="0.12"/>
  <rect x="360" y="280" width="100" height="32" rx="16" fill="#fff" fill-opacity="0.10"/>
  <rect x="250" y="140" width="100" height="100" rx="24" fill="#fff" fill-opacity="0.08"/>
  <!-- Central Bitropy Logo -->
  <g transform="translate(300,200) scale(0.31)">
    <g transform="translate(-416,-170)">
      <path d="M77 278C94.1208 278 108 291.879 108 309C108 326.121 94.1208 340 77 340C59.8792 340 46 326.121 46 309C46 291.879 59.8792 278 77 278Z" fill="white"/>
      <path d="M144.5 275C161.345 275 175 288.655 175 305.5C175 322.345 161.345 336 144.5 336C127.655 336 114 322.345 114 305.5C114 288.655 127.655 275 144.5 275Z" fill="white"/>
      <path d="M197 230C214.121 230 228 243.879 228 261C228 278.121 214.121 292 197 292C179.879 292 166 278.121 166 261C166 243.879 179.879 230 197 230Z" fill="white"/>
      <path d="M35.5 220C53.4493 220 68 234.551 68 252.5C68 270.449 53.4493 285 35.5 285C17.5507 285 3 270.449 3 252.5C3 234.551 17.5507 220 35.5 220Z" fill="white"/>
      <path fill-rule="evenodd" clip-rule="evenodd" d="M599.592 171.471C605.962 171.471 611.596 173.039 616.496 176.175C621.396 179.311 625.219 183.721 627.963 189.405C630.805 194.991 632.226 201.606 632.226 209.25C632.226 216.894 630.805 223.558 627.963 229.242C625.219 234.926 621.396 239.336 616.496 242.472C611.694 245.51 606.06 247.029 599.592 247.029C593.908 247.029 588.958 245.853 584.744 243.501C581.898 241.875 579.498 240.013 577.542 237.918V275.4H558.726V172.5H575.777L576.953 181.614C579.109 178.772 582.147 176.371 586.067 174.411C589.987 172.451 594.496 171.471 599.592 171.471ZM594.74 188.67C591.604 188.67 588.713 189.503 586.067 191.169C583.519 192.737 581.462 195.04 579.894 198.078C578.326 201.018 577.542 204.742 577.542 209.25C577.542 213.66 578.326 217.384 579.894 220.422C581.461 223.46 583.52 225.812 586.067 227.478C588.713 229.045 591.604 229.83 594.74 229.83C599.836 229.83 603.953 227.968 607.089 224.244C610.323 220.422 611.939 215.424 611.939 209.25C611.939 203.076 610.323 198.127 607.089 194.403C603.953 190.581 599.836 188.67 594.74 188.67Z" fill="white"/>
      <path d="M666.471 220.863L684.846 172.5H704.984L661.62 275.4H642.657L656.475 243.354L627.516 172.5H648.537L666.471 220.863Z" fill="white"/>
      <path fill-rule="evenodd" clip-rule="evenodd" d="M516.836 171.471C523.892 171.471 530.262 173.039 535.946 176.175C541.63 179.213 546.139 183.574 549.471 189.258C552.803 194.844 554.469 201.459 554.469 209.103C554.469 216.845 552.753 223.558 549.323 229.242C545.991 234.926 541.434 239.336 535.652 242.472C529.968 245.51 523.549 247.029 516.396 247.029C509.242 247.029 502.871 245.51 497.285 242.472C491.699 239.336 487.29 234.975 484.056 229.389C480.92 223.705 479.352 217.04 479.352 209.396C479.352 201.655 480.968 194.942 484.202 189.258C487.534 183.574 492.043 179.213 497.727 176.175C503.41 173.039 509.78 171.471 516.836 171.471ZM516.542 188.376C513.504 188.376 510.662 189.16 508.017 190.728C505.469 192.198 503.41 194.501 501.842 197.637C500.274 200.675 499.49 204.595 499.49 209.396C499.49 214.002 500.225 217.874 501.695 221.01C503.263 224.048 505.321 226.351 507.869 227.919C510.417 229.389 513.21 230.124 516.248 230.124C519.286 230.124 522.177 229.389 524.921 227.919C527.665 226.351 529.92 224.048 531.684 221.01C533.447 217.874 534.329 213.904 534.329 209.103C534.329 204.497 533.496 200.675 531.83 197.637C530.164 194.501 527.959 192.197 525.215 190.728C522.569 189.16 519.678 188.376 516.542 188.376Z" fill="white"/>
      <path d="M709.658 223.362C713.186 223.362 716.077 224.538 718.331 226.89C720.683 229.144 721.858 231.938 721.858 235.27C721.858 238.503 720.683 241.297 718.331 243.648C716.077 245.902 713.186 247.029 709.658 247.029C706.032 247.029 703.042 245.902 700.69 243.648C698.437 241.297 697.31 238.503 697.31 235.27C697.31 231.938 698.436 229.144 700.69 226.89C703.042 224.538 706.032 223.362 709.658 223.362Z" fill="white"/>
      <path fill-rule="evenodd" clip-rule="evenodd" d="M793.553 171.471C800.608 171.471 806.978 173.039 812.662 176.175C818.346 179.213 822.855 183.574 826.187 189.258C829.518 194.844 831.185 201.459 831.185 209.103C831.185 216.845 829.469 223.558 826.039 229.242C822.707 234.926 818.15 239.336 812.368 242.472C806.684 245.51 800.265 247.029 793.111 247.029C785.957 247.029 779.587 245.51 774.001 242.472C768.415 239.336 764.005 234.975 760.771 229.389C757.636 223.705 756.067 217.04 756.067 209.396C756.067 201.655 757.684 194.942 760.918 189.258C764.25 183.574 768.758 179.213 774.442 176.175C780.126 173.039 786.497 171.471 793.553 171.471ZM793.258 188.376C790.22 188.376 787.378 189.16 784.732 190.728C782.185 192.197 780.127 194.501 778.559 197.637C776.991 200.675 776.206 204.595 776.206 209.396C776.206 214.002 776.941 217.874 778.411 221.01C779.979 224.048 782.037 226.351 784.585 227.919C787.133 229.389 789.926 230.124 792.964 230.124C796.002 230.124 798.894 229.389 801.638 227.919C804.382 226.351 806.635 224.048 808.399 221.01C810.163 217.874 811.045 213.904 811.045 209.103C811.045 204.497 810.212 200.675 808.546 197.637C806.88 194.501 804.675 192.197 801.932 190.728C799.286 189.16 796.394 188.376 793.258 188.376Z" fill="white"/>
      <path d="M419.478 172.5H435.795V189.111H419.478V218.952C419.478 222.774 420.311 225.469 421.977 227.037C423.643 228.605 425.701 229.438 428.15 229.536C430.698 229.634 433.247 229.487 435.795 229.095V245.265C431.287 246.245 426.876 246.538 422.564 246.146C418.35 245.754 414.577 244.628 411.245 242.766C407.913 240.806 405.268 237.866 403.308 233.946C401.446 230.026 400.515 225.028 400.515 218.952V189.111H390.077V172.5H400.515V151.92H419.478V172.5Z" fill="white"/>
      <path fill-rule="evenodd" clip-rule="evenodd" d="M322.771 143.101C329.924 143.101 335.952 144.325 340.852 146.775C345.752 149.127 349.427 152.362 351.877 156.478C354.425 160.495 355.699 165.053 355.699 170.148C355.699 174.656 354.866 178.478 353.2 181.614C351.534 184.75 349.231 187.249 346.291 189.111C343.449 190.875 340.166 192.1 336.442 192.786V193.962C340.95 194.55 344.821 195.824 348.055 197.784C351.289 199.646 353.788 202.292 355.552 205.722C357.316 209.152 358.198 213.317 358.198 218.217C358.198 223.607 356.875 228.409 354.229 232.623C351.583 236.739 347.712 240.022 342.616 242.472C337.618 244.824 331.591 246 324.535 246H274.996V143.101H322.771ZM294.841 229.389H321.889C327.083 229.389 331.101 228.262 333.943 226.008C336.883 223.656 338.353 220.275 338.353 215.865C338.353 211.259 336.785 207.78 333.649 205.428C330.611 203.076 326.544 201.9 321.448 201.9H294.841V229.389ZM294.841 185.73H319.831C324.829 185.73 328.7 184.652 331.444 182.496C334.286 180.242 335.707 177.008 335.707 172.794C335.707 168.482 334.335 165.248 331.591 163.092C328.847 160.838 324.975 159.711 319.978 159.711H294.841V185.73Z" fill="white"/>
      <path d="M384.909 246H366.094V172.5H384.909V246Z" fill="white"/>
      <path d="M472.866 172.353C476.002 171.667 479.285 171.716 482.715 172.5V190.14C480.069 189.258 477.276 189.013 474.336 189.405C471.494 189.797 468.799 190.826 466.251 192.492C463.801 194.158 461.743 196.559 460.077 199.695C458.509 202.733 457.725 206.604 457.725 211.308V246H438.909V172.5H455.961L457.284 181.908C459.342 179.36 461.645 177.302 464.193 175.734C466.839 174.068 469.73 172.941 472.866 172.353Z" fill="white"/>
      <path d="M749.43 246H730.613V172.5H749.43V246Z" fill="white"/>
      <path d="M198.5 165C214.792 165 228 178.208 228 194.5C228 210.792 214.792 224 198.5 224C182.208 224 169 210.792 169 194.5C169 178.208 182.208 165 198.5 165Z" fill="white"/>
      <path d="M33 148C51.2254 148 66 162.775 66 181C66 199.225 51.2254 214 33 214C14.7746 214 0 199.225 0 181C0 162.775 14.7746 148 33 148Z" fill="white"/>
      <path d="M161.5 112C177.24 112 190 124.76 190 140.5C190 156.24 177.24 169 161.5 169C145.76 169 133 156.24 133 140.5C133 124.76 145.76 112 161.5 112Z" fill="white"/>
      <path d="M375.648 140.16C378.98 140.16 381.773 141.287 384.027 143.541C386.379 145.697 387.556 148.392 387.556 151.626C387.556 154.762 386.379 157.457 384.027 159.711C381.773 161.965 378.98 163.092 375.648 163.092C372.12 163.092 369.23 161.965 366.976 159.711C364.722 157.457 363.595 154.762 363.595 151.626C363.595 148.392 364.722 145.697 366.976 143.541C369.23 141.287 372.12 140.16 375.648 140.16Z" fill="white"/>
      <path d="M740.168 140.16C743.5 140.16 746.293 141.287 748.547 143.541C750.899 145.697 752.075 148.392 752.075 151.626C752.075 154.762 750.899 157.457 748.547 159.711C746.293 161.965 743.5 163.092 740.168 163.092C736.64 163.092 733.749 161.965 731.495 159.711C729.241 157.457 728.114 154.762 728.114 151.626C728.114 148.392 729.241 145.697 731.495 143.541C733.749 141.287 736.64 140.16 740.168 140.16Z" fill="white"/>
      <path d="M34.5 74C53.5538 74 69 89.4462 69 108.5C69 127.554 53.5538 143 34.5 143C15.4462 143 0 127.554 0 108.5C0 89.4462 15.4462 74 34.5 74Z" fill="white"/>
      <path d="M104 87C119.464 87 132 99.536 132 115C132 130.464 119.464 143 104 143C88.536 143 76 130.464 76 115C76 99.536 88.536 87 104 87Z" fill="white"/>
      <path d="M34 0C52.7777 0 68 15.2223 68 34C68 52.7777 52.7777 68 34 68C15.2223 68 0 52.7777 0 34C0 15.2223 15.2223 0 34 0Z" fill="white"/>
    </g>
  </g>
  <!-- Subtle grid for structure -->
  <g opacity="0.07">
    <rect x="0" y="0" width="600" height="400" fill="none" stroke="#fff" stroke-width="1"/>
    <line x1="100" y1="0" x2="100" y2="400" stroke="#fff"/>
    <line x1="200" y1="0" x2="200" y2="400" stroke="#fff"/>
    <line x1="300" y1="0" x2="300" y2="400" stroke="#fff"/>
    <line x1="400" y1="0" x2="400" y2="400" stroke="#fff"/>
    <line x1="500" y1="0" x2="500" y2="400" stroke="#fff"/>
    <line x1="0" y1="100" x2="600" y2="100" stroke="#fff"/>
    <line x1="0" y1="200" x2="600" y2="200" stroke="#fff"/>
    <line x1="0" y1="300" x2="600" y2="300" stroke="#fff"/>
  </g>
  <!-- Connecting lines -->
  <path d="M140 100 Q300 40 460 100" stroke="url(#lineGradient)" stroke-width="3" fill="none"/>
  <path d="M140 100 Q60 200 120 320" stroke="url(#lineGradient)" stroke-width="3" fill="none"/>
  <path d="M120 320 Q300 390 480 320" stroke="url(#lineGradient)" stroke-width="3" fill="none"/>
  <path d="M480 320 Q540 200 460 100" stroke="url(#lineGradient)" stroke-width="3" fill="none"/>
  <!-- Animated Icons (bigger, connected) -->
  <!-- Team/Group Icon (top left) -->
  <g opacity="0.9">
    <g>
      <circle cx="140" cy="100" r="32" fill="#fff" fill-opacity="0.18"/>
      <circle cx="140" cy="92" r="13" fill="#fff"/>
      <ellipse cx="140" cy="112" rx="18" ry="10" fill="#fff" fill-opacity="0.7"/>
      <circle cx="120" cy="108" r="8" fill="#fff" fill-opacity="0.7"/>
      <circle cx="160" cy="108" r="8" fill="#fff" fill-opacity="0.7"/>
    </g>
    <animateTransform attributeName="transform" type="translate" values="0,0; 0,12; 0,0" dur="5s" repeatCount="indefinite"/>
  </g>
  <!-- Gear Icon (bottom right) -->
  <g opacity="0.9">
    <g>
      <circle cx="480" cy="320" r="28" fill="#fff" fill-opacity="0.18"/>
      <g transform="translate(480,320)">
        <g>
          <circle r="12" fill="#fff"/>
          <g stroke="#fff" stroke-width="3">
            <line x1="0" y1="-20" x2="0" y2="-32"/>
            <line x1="0" y1="20" x2="0" y2="32"/>
            <line x1="-20" y1="0" x2="-32" y2="0"/>
            <line x1="20" y1="0" x2="32" y2="0"/>
            <line x1="14" y1="14" x2="24" y2="24"/>
            <line x1="-14" y1="14" x2="-24" y2="24"/>
            <line x1="14" y1="-14" x2="24" y2="-24"/>
            <line x1="-14" y1="-14" x2="-24" y2="-24"/>
          </g>
        </g>
      </g>
    </g>
    <animateTransform attributeName="transform" type="rotate" from="0 480 320" to="360 480 320" dur="8s" repeatCount="indefinite"/>
  </g>
  <!-- Lightbulb Icon (top right) -->
  <g opacity="0.9">
    <g>
      <circle cx="460" cy="100" r="26" fill="#fff" fill-opacity="0.18"/>
      <g>
        <ellipse cx="460" cy="100" rx="12" ry="16" fill="#fff"/>
        <rect x="454" y="116" width="12" height="8" rx="4" fill="#a78bfa"/>
        <rect x="457" y="126" width="6" height="6" rx="3" fill="#a78bfa"/>
      </g>
    </g>
    <animateTransform attributeName="transform" type="translate" values="0,0; 0,10; 0,0" dur="6s" repeatCount="indefinite"/>
  </g>
  <!-- Chat Bubble Icon (bottom left) -->
  <g opacity="0.9">
    <g>
      <circle cx="120" cy="320" r="26" fill="#fff" fill-opacity="0.18"/>
      <g>
        <rect x="104" y="308" width="32" height="20" rx="10" fill="#fff"/>
        <polygon points="120,328 128,328 124,336" fill="#fff"/>
      </g>
    </g>
    <animateTransform attributeName="transform" type="translate" values="0,0; 0,-12; 0,0" dur="7s" repeatCount="indefinite"/>
  </g>
</svg>